<svg xmlns="http://www.w3.org/2000/svg" viewBox="0 0 616.68 568.79"><title>Asset 3</title><g id="Layer_2" data-name="Layer 2"><g id="Layer_1-2" data-name="Layer 1"><path d="M363.07,345.21l0,0H361.3Z"/><line x1="363.03" y1="345.23" x2="361.3" y2="345.23"/><line x1="452.72" y1="213.09" x2="452.07" y2="213.09"/><line x1="363.03" y1="345.23" x2="361.3" y2="345.23"/><path d="M589.9,165.18q0,7.5-.65,14.82a164.31,164.31,0,0,1-25.16,73.88,166,166,0,0,1-63.83,58.24h0l-1.77,0H296.75V417.43a165.19,165.19,0,0,1-9,41.65A165.71,165.71,0,0,1,198,555.15a163.71,163.71,0,0,1-25.87,8.77,165.52,165.52,0,0,1-40,4.87H0V436.65H106a66.07,66.07,0,0,0,66.07-66.07V246.07q0-1.4.06-2.76h-.06V180h301c.16-.16.33-.33.47-.5a32.83,32.83,0,0,0,9.05-21c0-.58.05-1.16.05-1.75a33,33,0,0,0-11-24.6H318.25V0H424.72A165,165,0,0,1,589.9,165.18Z"/><path d="M500.25,312.12l0,0h-1.73Z"/><path d="M307.75,48.55v1.07l-.4-.66Z"/><path d="M172.16,243.31q-.06,1.37-.06,2.76V243.3Z"/><path d="M445.52,542.22a66.13,66.13,0,0,1-7-11.83Z"/><polygon points="296.75 0 296.75 158.5 172.1 158.5 172.1 132.15 0 132.15 0 0 296.75 0"/><line x1="172.1" y1="246.07" x2="172.1" y2="243.3"/><line x1="500.21" y1="312.14" x2="498.48" y2="312.14"/><line x1="589.9" y1="180" x2="589.25" y2="180"/><line x1="500.21" y1="312.14" x2="498.48" y2="312.14"/><polygon points="616.68 568.79 461.33 568.79 445.54 542.25 445.52 542.22 438.47 530.39 438.45 530.35 382.7 436.65 321.41 333.64 476.75 333.64 538.05 436.65 616.68 568.79"/><line x1="307.75" y1="49.62" x2="307.35" y2="48.96"/></g></g></svg>